<?xml version="1.0" encoding="UTF-8"?>
<svg xmlns="http://www.w3.org/2000/svg" viewBox="0 0 215.52 34" preserveAspectRatio="xMidYMid meet">
  <defs>
    <style>
      .logo-path {
        fill: rgba(255,255,255,0.55);
        opacity: 0;
        transform: translateY(6%);
        transform-origin: center;
        transform-box: fill-box;
      }
      .p-0 { animation: riseIn 0.6s cubic-bezier(0.22, 1, 0.36, 1) 0.00s forwards; }
      .p-1 { animation: riseIn 0.6s cubic-bezier(0.22, 1, 0.36, 1) 0.08s forwards; }
      .p-2 { animation: riseIn 0.6s cubic-bezier(0.22, 1, 0.36, 1) 0.16s forwards; }
      .p-3 { animation: riseIn 0.6s cubic-bezier(0.22, 1, 0.36, 1) 0.24s forwards; }
      .p-4 { animation: riseIn 0.6s cubic-bezier(0.22, 1, 0.36, 1) 0.32s forwards; }
      .p-5 { animation: riseIn 0.6s cubic-bezier(0.22, 1, 0.36, 1) 0.40s forwards; }
      .p-6 { animation: riseIn 0.6s cubic-bezier(0.22, 1, 0.36, 1) 0.48s forwards; }
      .p-7 { animation: riseIn 0.6s cubic-bezier(0.22, 1, 0.36, 1) 0.56s forwards; }
      .p-8 { animation: riseIn 0.6s cubic-bezier(0.22, 1, 0.36, 1) 0.64s forwards; }
      @keyframes riseIn {
        to {
          opacity: 1;
          transform: translateY(0);
        }
      }
    </style>
  </defs>
  <path class="logo-path p-0" d="M0,.65h8.1v32.7H0V.65Z"/>
  <path class="logo-path p-1" d="M11.55,13.75C11.55,5.3,16.55,0,25.55,0s14,5.3,14,13.75v19.6h-8.1V13.75c0-4-1.9-6.25-5.9-6.25s-5.9,2.25-5.9,6.25v19.6h-8.1s0-19.6,0-19.6Z"/>
  <path class="logo-path p-2" d="M43,.65h23.75v7.5h-15.65v5.1h12.75v7h-12.75v13.1h-8.1V.65Z"/>
  <path class="logo-path p-3" d="M69.05.65h8.1v32.7h-8.1V.65Z"/>
  <path class="logo-path p-4" d="M80.6,13.75C80.6,5.3,85.6,0,94.6,0s14,5.3,14,13.75v19.6h-8.1V13.75c0-4-1.9-6.25-5.9-6.25s-5.9,2.25-5.9,6.25v19.6h-8.1V13.75Z"/>
  <path class="logo-path p-5" d="M112.05.65h8.1v32.7h-8.1V.65Z"/>
  <path class="logo-path p-6" d="M159.62,33.35h-19.56c-10.08,0-17.51-6.16-17.51-16.55,0-9.76,7.66-16.55,17.23-16.55s17.23,6.84,17.23,16.55c0,4.56-2.01,9.03-6.43,10.99v.09h9.03v5.47h0ZM139.78,26.79c5.43,0,9.85-4.42,9.85-9.98s-4.42-9.99-9.85-9.99-9.85,4.42-9.85,9.99,4.42,9.98,9.85,9.98Z"/>
  <path class="logo-path p-7" d="M160.17,20.25V.65h8.1v19.6c0,4,1.85,6.25,5.85,6.25s5.95-2.2,5.95-6.25V.65h7.9v19.6c0,8.4-4.95,13.75-13.8,13.75s-14-5.3-14-13.75Z"/>
  <path class="logo-path p-8" d="M191.37.65h24.15v7.5h-16.05v5.35h13.15v6.5h-13.15v5.85h16.05v7.5h-24.15V.65Z"/>
</svg>
