<svg xmlns="http://www.w3.org/2000/svg" viewBox="0 0 1458.99 347.83"><path fill="#ccc" d="M354.46,41.61c3.4-28.62,36-46.81,62.75-39.7,20.08,5.34,29.39,21.57,30.13,41.57l-3.92,1.62c3.14-25.74-25.56-52.37-48.5-31.95-6.08,5.41-12.47,18.39-12.47,26.47v32.43h50.47c2.11,0,9.33,2.32,11.75,3.23,13.5,5.11,18.74,17.44,19.77,31.16,2.78,37.03-2.66,77.69-.08,114.84.83,11.97,4.72,25.42,18.37,22.61,1.81-.37,3.64-.9,5.16-1.51,2.04-.82,3.15-1.36,3.15-1.36l.93,2.51s-10.75,7.1-27.96,4.04-26.26-15.52-27.62-34.29c-2.65-36.65,2.79-77.07.02-113.78-.36-4.83-3.05-22.47-9.48-22.47h-44.48v183.75c0,34.86-3.44,38.76-4.81,41.47-8.15,16.09-27.94,19.9-43.65,15.52-2.54-.71-7.57-3.12-7.57-3.12l.93-2.51s4.51,2.23,8.3,2.87c9.19,1.53,13.39-2.7,16-10.29,1.81-5.27,2.83-19.15,2.83-21.81V77.03h-17.99v-4.99h17.99c.83-9.65-1.12-21.01,0-30.44Z"/><path fill="#ccc" d="M968.14,237.44c-48.64,20.19-112.65,6.16-127.22-48.85-4.59-17.36-5-51.1-2.59-69.01,8.78-65.39,93.9-59.66,117.36-7.65l12.45,34.97v-54.39c0-3.69-4.48-12.89-8.08-14.89-6.44-3.57-10.4-.66-16.28.58-.85.18-1.88,1.44-2.62-.67s-.2-2,1.26-2.72c1.64-.8,7.54-2.27,9.48-2.51,19.65-2.4,37.96,3.84,42.92,24.49,5.14,71.52-2.39,145.8,1.25,217.29.91,17.87,3.63,37.45,27.03,26.39l.93,2.51c-16.35,9.04-42.58,5.75-51.3-12.58-1.67-3.51-4.6-8.34-4.6-30.13v-62.84ZM968.01,237.57c-.3-28.48,2.21-56.67-3.33-84.73-5.46-27.62-17.89-60.33-45.83-71.99-28.52-11.9-46.44,2.78-51.36,30.91-4.07,23.24-3.41,69.83,4.24,91.97,14.92,43.13,57.73,47.61,96.28,33.84Z"/><path fill="#ccc" d="M1346.74,68.35c24.74-1.72,64.98,4.19,77.04,29.27,10.68,22.2-1.21,31.93-20.18,40.47-11.83,5.33-24.46,9.27-36.34,14.61-18.45,8.3-66.04,31.33-67.88,54.04-.66,8.17,17.66,23.7,24.56,27.49,47.3,25.99,108.56-6.85,129.91-51.97l5.01,2.12c-20.87,44.33-67.82,72.41-117.29,66.18-116.57-14.68-111.59-174.08,5.17-182.2ZM1294.96,197.77c.25-2.72,2.04-5.73,3.58-7.91,11.06-15.68,38.56-30.36,55.73-39.16,10.87-5.57,34.72-13.31,41.09-22.84,5.3-7.93,2.48-24.77-1.61-33.18-11.82-24.31-44.9-24.18-65.7-12.07-34.79,20.25-49.19,76.95-34.55,113.19.39.96.12,2.28,1.48,1.98Z"/><path fill="#ccc" d="M1.66,8.18l-1.01-3.98c30.46-9.1,53.51-.36,56.01,33.38,4.46,60.21-3.43,125.85-.02,186.63,1.4,15.67,9.85,24.51,25.48,16.5l1.49,2.46c-3.74,3.2-9.62,4.22-14.45,4.55-23.39,1.6-38.69-9.66-40.56-33.44-4.58-58.34,3.33-122.67.08-181.7C27.67,14.2,24.44-1.97,1.66,8.18Z"/><path fill="#ccc" d="M810.93,240.54l1.81,2.89-1.51.74c-19.5,8.05-46.65,3.61-52.68-19.24-1.07-4.07-2.05-10.42-2.34-14.63-2.43-36.27,2.6-75.62.08-111.85-1.14-16.38-7.21-28.52-25.53-19.44l-1.49-3.95c26.88-8.6,52.54-.68,55,30.39,2.93,36.9-2.8,77.82-.07,114.83.39,5.31,2.04,14.47,5.19,18.77,6.29,8.56,17.54,3.1,20.91,1.77.48-.19.63-.27.63-.27Z"/><path fill="#ccc" d="M716.68,240.66c-19.33,8.99-25.23-3.04-26.44-20.38-2.34-33.6,3.24-71.6-.08-104.7-3.78-37.64-44.79-50.52-77.05-40.25-22.7,7.23-37.57,26.72-45.51,48.37l-7.25,22.2s.07-12.67-.21-24.68c-.02-1.11-.06-2.22-.09-3.33,0-.06,0-.12,0-.17-.04-1.31-.09-2.59-.15-3.83-.05-1.09-.11-2.18-.17-3.27-.04-.73-.09-1.43-.14-2.11-.07-1.02-.12-2.05-.2-3.06-.08-1.02-.2-2-.33-2.97-.1-.84-.19-1.46-.27-1.8-1.02-6-3.02-11-5.77-15.06-.03-.04-.06-.09-.09-.13-.22-.34-.46-.67-.69-.99-5.03-6.74-12.33-10.65-20.8-12.07-.59-.09-1.18-.17-1.78-.23-7.65-.95-16.16.01-24.83,2.73-.14.04-.29.08-.43.13h0s0,0,0,0l1.49,3.95s0,0,0,0h0s.09-.04.13-.06c4.49-2.21,8.24-3.13,11.36-3.03.04,0,.09,0,.13,0,.18.01.37.03.55.04,3.52.29,6.2,1.95,8.2,4.57,3.14,4.11,4.65,10.58,5.15,17.92.41,5.93.61,11.95.68,18.02.37,31.01-2.79,63.49-.76,93.82.05.76.13,1.61.22,2.48.42,3.96,1.23,8.82,2.11,12.15,2.48,9.41,8.55,15.69,16.18,19.27,7.39,3.46,16.24,4.4,24.75,3.17,4.06-.59,8.04-1.66,11.74-3.19l1.51-.74-.45-.71-.8-1.28-.56-.89s-.15.08-.63.27c-.48.19-1.13.47-1.89.77-1.74.69-4.11,1.55-6.68,1.95-.53.08-1.07.14-1.61.18-3.79.27-7.8-.68-10.73-4.67-.63-.86-1.2-1.92-1.71-3.1-.94-2.16-1.68-4.73-2.24-7.3-1.87-12.65-1.12-43.11-.18-56.29,1.58-22.02,11.02-54.72,24.56-72.28,24.76-32.12,73.6-34.27,77.41,14.35,2.49,31.74-2.68,67.14-.02,98.81,2.63,31.4,28.84,41.95,55.94,29.96l-1.57-2.53Z"/><path fill="#ccc" d="M312.82,240.66c-19.33,8.99-25.23-3.04-26.44-20.38-2.34-33.6,3.24-71.6-.08-104.7-3.78-37.64-44.79-50.52-77.05-40.25-22.7,7.23-37.57,26.72-45.51,48.37l-7.25,22.2s.07-12.67-.21-24.68c-.02-1.11-.06-2.22-.09-3.33,0-.06,0-.12,0-.17-.04-1.31-.09-2.59-.15-3.83-.05-1.09-.11-2.18-.17-3.27-.04-.73-.09-1.43-.14-2.11-.07-1.02-.12-2.05-.2-3.06-.08-1.02-.2-2-.33-2.97-.1-.84-.19-1.46-.27-1.8-1.02-6-3.02-11-5.77-15.06-.03-.04-.06-.09-.09-.13-.22-.34-.46-.67-.69-.99-5.03-6.74-12.33-10.65-20.8-12.07-.59-.09-1.18-.17-1.78-.23-7.65-.95-16.16.01-24.83,2.73-.14.04-.29.08-.43.13h0s0,0,0,0l1.49,3.95s0,0,0,0h0s.09-.04.13-.06c4.49-2.21,8.24-3.13,11.36-3.03.04,0,.09,0,.13,0,.18.01.37.03.55.04,3.52.29,6.2,1.95,8.2,4.57,3.14,4.11,4.65,10.58,5.15,17.92.41,5.93.61,11.95.68,18.02.37,31.01-2.79,63.49-.76,93.82.05.76.13,1.61.22,2.48.42,3.96,1.23,8.82,2.11,12.15,2.48,9.41,8.55,15.69,16.18,19.27,7.39,3.46,16.24,4.4,24.75,3.17,4.06-.59,8.04-1.66,11.74-3.19l1.51-.74-.45-.71-.8-1.28-.56-.89s-.15.08-.63.27c-.48.19-1.13.47-1.89.77-1.74.69-4.11,1.55-6.68,1.95-.53.08-1.07.14-1.61.18-3.79.27-7.8-.68-10.73-4.67-.63-.86-1.2-1.92-1.71-3.1-.94-2.16-1.68-4.73-2.24-7.3-1.87-12.65-1.12-43.11-.18-56.29,1.58-22.02,11.02-54.72,24.56-72.28,24.76-32.12,73.6-34.27,77.41,14.35,2.49,31.74-2.68,67.14-.02,98.81,2.63,31.4,28.84,41.95,55.94,29.96l-1.57-2.53Z"/><path fill="#ccc" d="M1244.39,240.56c-.88-.78-14.62,8.16-21.83-1.65-3.15-4.29-4.8-13.46-5.19-18.77-2.72-37.02,3-77.94.07-114.83-2.02-25.42-19.57-35.34-40.62-33.39-1.04.06-2.1.14-3.17.25-1.14.12-4.83.84-7.91,1.79-1.1.3-2.2.61-3.3.96l.1.26,1.27,3.37.12.33c2.69-1.33,5.11-2.19,7.29-2.67,14.13-2.43,16.93,11.14,17.85,26.23,2.51,41.14-4.46,115.52-47.33,135.44-17.52,8.14-39.12,7.4-49.18-11.15-15.89-29.31.1-94.39-7.97-128.76-6.05-25.77-32.63-31.93-54.46-21.45,2.58,4.19,5.42.14,9.56-.41,15.13-2.01,17.62,11.47,18.45,23.32,2.3,33.11-2.92,69.88.09,102.7,3.57,38.97,43.1,52.83,77.05,42.26,23.72-7.39,38.13-28.13,46.51-50.36l7.16-22.91c-.28,10.96-.37,21.84.09,32.5.1,2.19.21,4.37.36,6.54.28,4.21,1.26,10.56,2.34,14.63,6.03,22.85,33.18,27.3,52.68,19.24.21-.05.35-.18.44-.36.48-.89-.34-3.03-.45-3.12Z"/><path fill="#ccc" d="M766.55,58.64c-1.73-15.31-14.14-27.72-29.28-29.27,16.57-3.2,26.24-13.27,29.36-29.37,2.81,16.16,12.48,26.11,28.61,29.28-16.24,2.9-25.78,12.86-28.68,29.36Z"/></svg>